ffmpeg started on 2026-04-09 at 15:39:56
Report written to "D:\Convert\FFMetrics\reports\ssim_report-6.txt"
Log level: 32
Command line:
ffmpeg -hide_banner -nostdin -r 24000/1001 -i "F:\\Convert\\files\\[DC] Make Heroine ga Oosugiru - 07_Telegram_HEVC(324).mkv" -r 24000/1001 -i "F:\\Convert\\files\\[DC] Make Heroine ga Oosugiru - 07_Telegram.mp4" -lavfi "[0:v]settb=AVTB,setpts=PTS-STARTPTS,format=pix_fmts=yuv420p10le,fps=24000/1001,scale=1920:1080:flags=lanczos:param0=3:out_range=limited:out_color_matrix=bt709:out_chroma_loc=left,setsar=1/1,setdar=(1920/1080)*(1/1),colorspace=format=yuv420p10:range=tv:primaries=bt709:trc=bt709:space=bt709:fast=0[main];[1:v]settb=AVTB,setpts=PTS-STARTPTS,format=pix_fmts=yuv420p,fps=24000/1001,scale=1920:1080:flags=lanczos:param0=3:out_range=limited:out_color_matrix=bt709:out_chroma_loc=left,setsar=1/1,setdar=(1920/1080)*(1/1),colorspace=format=yuv420p:range=tv:primaries=bt709:trc=bt709:space=bt709:fast=0[ref];[main][ref]ssim=eof_action=endall:stats_file='D\\:/Convert/FFMetrics/logs/ssim_logfile-6.txt'" -f null -
Input #0, matroska,webm, from 'F:\Convert\files\[DC] Make Heroine ga Oosugiru - 07_Telegram_HEVC(324).mkv':
  Metadata:
    COMPATIBLE_BRANDS: isomiso2avc1mp41
    MAJOR_BRAND     : isom
    MINOR_VERSION   : 512
    ENCODER         : Lavf61.7.100
  Duration: 00:24:06.79, start: -0.021000, bitrate: 927 kb/s
  Stream #0:0: Video: hevc (Main 10), yuv420p10le(tv, bt709, progressive), 1920x1080 [SAR 1:1 DAR 16:9], 23.98 fps, 23.98 tbr, 1k tbn (default)
      Metadata:
        HANDLER_NAME    : VideoHandler
        VENDOR_ID       : [0][0][0][0]
        ENCODER         : Lavc61.19.100 libx265
        BPS             : 730857
        DURATION        : 00:24:06.569708333
        NUMBER_OF_FRAMES: 34683
        NUMBER_OF_BYTES : 132154393
        _STATISTICS_WRITING_APP: mkvpropedit v94.0 ('Initiate') 64-bit
        _STATISTICS_WRITING_DATE_UTC: 2026-04-09 11:43:53
        _STATISTICS_TAGS: BPS DURATION NUMBER_OF_FRAMES NUMBER_OF_BYTES
  Stream #0:1: Audio: aac (LC), 48000 Hz, stereo, fltp (default)
      Metadata:
        HANDLER_NAME    : SoundHandler
        VENDOR_ID       : [0][0][0][0]
        ENCODER         : Lavc61.19.100 aac
        BPS             : 193194
        DURATION        : 00:24:06.784000000
        NUMBER_OF_FRAMES: 67819
        NUMBER_OF_BYTES : 34938755
        _STATISTICS_WRITING_APP: mkvpropedit v94.0 ('Initiate') 64-bit
        _STATISTICS_WRITING_DATE_UTC: 2026-04-09 11:43:53
        _STATISTICS_TAGS: BPS DURATION NUMBER_OF_FRAMES NUMBER_OF_BYTES
Input #1, mov,mp4,m4a,3gp,3g2,mj2, from 'F:\Convert\files\[DC] Make Heroine ga Oosugiru - 07_Telegram.mp4':
  Metadata:
    major_brand     : isom
    minor_version   : 512
    compatible_brands: isomiso2avc1mp41
    encoder         : Lavf60.16.100
  Duration: 00:24:06.74, start: 0.000000, bitrate: 3764 kb/s
  Stream #1:0[0x1](und): Video: h264 (High) (avc1 / 0x31637661), yuv420p(tv, bt709, progressive), 1920x1080 [SAR 1:1 DAR 16:9], 3616 kb/s, 23.98 fps, 23.98 tbr, 24k tbn (default)
      Metadata:
        handler_name    : VideoHandler
        vendor_id       : [0][0][0][0]
        encoder         : Lavc60.31.102 h264_qsv
  Stream #1:1[0x2](und): Audio: aac (HE-AACv2) (mp4a / 0x6134706D), 48000 Hz, stereo, fltp, 144 kb/s (default)
      Metadata:
        handler_name    : SoundHandler
        vendor_id       : [0][0][0][0]
Stream mapping:
  Stream #0:0 (hevc) -> settb:default
  Stream #1:0 (h264) -> settb:default
  ssim:default -> Stream #0:0 (wrapped_avframe)
  Stream #0:1 -> #0:1 (aac (native) -> pcm_s16le (native))
Output #0, null, to 'pipe:':
  Metadata:
    COMPATIBLE_BRANDS: isomiso2avc1mp41
    MAJOR_BRAND     : isom
    MINOR_VERSION   : 512
    encoder         : Lavf61.7.100
  Stream #0:0: Video: wrapped_avframe, yuv420p10le(tv, bt709, progressive), 1920x1080 [SAR 1:1 DAR 16:9], q=2-31, 200 kb/s, 23.98 fps, 23.98 tbn
      Metadata:
        encoder         : Lavc61.19.100 wrapped_avframe
  Stream #0:1: Audio: pcm_s16le, 48000 Hz, stereo, s16, 1536 kb/s (default)
      Metadata:
        HANDLER_NAME    : SoundHandler
        VENDOR_ID       : [0][0][0][0]
        _STATISTICS_TAGS: BPS DURATION NUMBER_OF_FRAMES NUMBER_OF_BYTES
        BPS             : 193194
        DURATION        : 00:24:06.784000000
        NUMBER_OF_FRAMES: 67819
        NUMBER_OF_BYTES : 34938755
        _STATISTICS_WRITING_APP: mkvpropedit v94.0 ('Initiate') 64-bit
        _STATISTICS_WRITING_DATE_UTC: 2026-04-09 11:43:53
        encoder         : Lavc61.19.100 pcm_s16le
frame=  109 fps=0.0 q=-0.0 size=N/A time=00:00:04.54 bitrate=N/A speed=8.94x    frame=  313 fps=302 q=-0.0 size=N/A time=00:00:13.05 bitrate=N/A speed=12.6x    frame=  497 fps=321 q=-0.0 size=N/A time=00:00:20.72 bitrate=N/A speed=13.4x    frame=  696 fps=338 q=-0.0 size=N/A time=00:00:29.02 bitrate=N/A speed=14.1x    frame=  879 fps=342 q=-0.0 size=N/A time=00:00:36.66 bitrate=N/A speed=14.3x    frame= 1023 fps=330 q=-0.0 size=N/A time=00:00:42.66 bitrate=N/A speed=13.8x    frame= 1183 fps=328 q=-0.0 size=N/A time=00:00:49.34 bitrate=N/A speed=13.7x    frame= 1349 fps=327 q=-0.0 size=N/A time=00:00:56.26 bitrate=N/A speed=13.7x    frame= 1508 fps=325 q=-0.0 size=N/A time=00:01:02.89 bitrate=N/A speed=13.6x    frame= 1656 fps=321 q=-0.0 size=N/A time=00:01:09.06 bitrate=N/A speed=13.4x    frame= 1815 fps=320 q=-0.0 size=N/A time=00:01:15.70 bitrate=N/A speed=13.3x    frame= 1980 fps=320 q=-0.0 size=N/A time=00:01:22.58 bitrate=N/A speed=13.4x    frame= 2097 fps=313 q=-0.0 size=N/A time=00:01:27.46 bitrate=N/A speed=13.1x    frame= 2254 fps=312 q=-0.0 size=N/A time=00:01:34.01 bitrate=N/A speed=  13x    frame= 2400 fps=310 q=-0.0 size=N/A time=00:01:40.10 bitrate=N/A speed=12.9x    frame= 2532 fps=307 q=-0.0 size=N/A time=00:01:45.60 bitrate=N/A speed=12.8x    frame= 2698 fps=308 q=-0.0 size=N/A time=00:01:52.52 bitrate=N/A speed=12.8x    frame= 2870 fps=309 q=-0.0 size=N/A time=00:01:59.70 bitrate=N/A speed=12.9x    frame= 3046 fps=311 q=-0.0 size=N/A time=00:02:07.04 bitrate=N/A speed=  13x    frame= 3233 fps=314 q=-0.0 size=N/A time=00:02:14.84 bitrate=N/A speed=13.1x    frame= 3424 fps=316 q=-0.0 size=N/A time=00:02:22.80 bitrate=N/A speed=13.2x    frame= 3611 fps=318 q=-0.0 size=N/A time=00:02:30.60 bitrate=N/A speed=13.3x    frame= 3800 fps=321 q=-0.0 size=N/A time=00:02:38.49 bitrate=N/A speed=13.4x    frame= 3990 fps=323 q=-0.0 size=N/A time=00:02:46.41 bitrate=N/A speed=13.5x    frame= 4183 fps=324 q=-0.0 size=N/A time=00:02:54.46 bitrate=N/A speed=13.5x    frame= 4367 fps=326 q=-0.0 size=N/A time=00:03:02.14 bitrate=N/A speed=13.6x    frame= 4552 fps=327 q=-0.0 size=N/A time=00:03:09.85 bitrate=N/A speed=13.6x    frame= 4746 fps=329 q=-0.0 size=N/A time=00:03:17.94 bitrate=N/A speed=13.7x    frame= 4936 fps=330 q=-0.0 size=N/A time=00:03:25.87 bitrate=N/A speed=13.8x    frame= 5123 fps=331 q=-0.0 size=N/A time=00:03:33.67 bitrate=N/A speed=13.8x    frame= 5312 fps=332 q=-0.0 size=N/A time=00:03:41.55 bitrate=N/A speed=13.9x    frame= 5502 fps=333 q=-0.0 size=N/A time=00:03:49.47 bitrate=N/A speed=13.9x    frame= 5684 fps=334 q=-0.0 size=N/A time=00:03:57.07 bitrate=N/A speed=13.9x    frame= 5874 fps=335 q=-0.0 size=N/A time=00:04:04.99 bitrate=N/A speed=  14x    frame= 6059 fps=336 q=-0.0 size=N/A time=00:04:12.71 bitrate=N/A speed=  14x    frame= 6248 fps=336 q=-0.0 size=N/A time=00:04:20.59 bitrate=N/A speed=  14x    frame= 6444 fps=337 q=-0.0 size=N/A time=00:04:28.76 bitrate=N/A speed=14.1x    frame= 6632 fps=338 q=-0.0 size=N/A time=00:04:36.60 bitrate=N/A speed=14.1x    frame= 6822 fps=339 q=-0.0 size=N/A time=00:04:44.53 bitrate=N/A speed=14.1x    frame= 7010 fps=340 q=-0.0 size=N/A time=00:04:52.37 bitrate=N/A speed=14.2x    frame= 7199 fps=340 q=-0.0 size=N/A time=00:05:00.25 bitrate=N/A speed=14.2x    frame= 7384 fps=341 q=-0.0 size=N/A time=00:05:07.97 bitrate=N/A speed=14.2x    frame= 7563 fps=341 q=-0.0 size=N/A time=00:05:15.44 bitrate=N/A speed=14.2x    frame= 7743 fps=341 q=-0.0 size=N/A time=00:05:22.94 bitrate=N/A speed=14.2x    frame= 7928 fps=342 q=-0.0 size=N/A time=00:05:30.66 bitrate=N/A speed=14.2x    frame= 8112 fps=342 q=-0.0 size=N/A time=00:05:38.33 bitrate=N/A speed=14.3x    frame= 8298 fps=342 q=-0.0 size=N/A time=00:05:46.09 bitrate=N/A speed=14.3x    frame= 8479 fps=342 q=-0.0 size=N/A time=00:05:53.64 bitrate=N/A speed=14.3x    frame= 8668 fps=343 q=-0.0 size=N/A time=00:06:01.52 bitrate=N/A speed=14.3x    frame= 8859 fps=343 q=-0.0 size=N/A time=00:06:09.49 bitrate=N/A speed=14.3x    frame= 9048 fps=344 q=-0.0 size=N/A time=00:06:17.37 bitrate=N/A speed=14.3x    frame= 9233 fps=344 q=-0.0 size=N/A time=00:06:25.09 bitrate=N/A speed=14.4x    frame= 9424 fps=345 q=-0.0 size=N/A time=00:06:33.05 bitrate=N/A speed=14.4x    frame= 9615 fps=345 q=-0.0 size=N/A time=00:06:41.02 bitrate=N/A speed=14.4x    frame= 9797 fps=345 q=-0.0 size=N/A time=00:06:48.61 bitrate=N/A speed=14.4x    frame= 9987 fps=346 q=-0.0 size=N/A time=00:06:56.54 bitrate=N/A speed=14.4x    frame=10170 fps=346 q=-0.0 size=N/A time=00:07:04.17 bitrate=N/A speed=14.4x    frame=10356 fps=346 q=-0.0 size=N/A time=00:07:11.93 bitrate=N/A speed=14.4x    frame=10532 fps=346 q=-0.0 size=N/A time=00:07:19.27 bitrate=N/A speed=14.4x    frame=10724 fps=346 q=-0.0 size=N/A time=00:07:27.28 bitrate=N/A speed=14.4x    frame=10910 fps=347 q=-0.0 size=N/A time=00:07:35.03 bitrate=N/A speed=14.5x    frame=11101 fps=347 q=-0.0 size=N/A time=00:07:43.00 bitrate=N/A speed=14.5x    frame=11276 fps=347 q=-0.0 size=N/A time=00:07:50.30 bitrate=N/A speed=14.5x    frame=11468 fps=347 q=-0.0 size=N/A time=00:07:58.31 bitrate=N/A speed=14.5x    frame=11660 fps=348 q=-0.0 size=N/A time=00:08:06.31 bitrate=N/A speed=14.5x    frame=11849 fps=348 q=-0.0 size=N/A time=00:08:14.20 bitrate=N/A speed=14.5x    frame=12038 fps=348 q=-0.0 size=N/A time=00:08:22.08 bitrate=N/A speed=14.5x    frame=12230 fps=348 q=-0.0 size=N/A time=00:08:30.09 bitrate=N/A speed=14.5x    frame=12417 fps=349 q=-0.0 size=N/A time=00:08:37.89 bitrate=N/A speed=14.5x    frame=12600 fps=349 q=-0.0 size=N/A time=00:08:45.52 bitrate=N/A speed=14.5x    frame=12789 fps=349 q=-0.0 size=N/A time=00:08:53.40 bitrate=N/A speed=14.6x    frame=12984 fps=349 q=-0.0 size=N/A time=00:09:01.54 bitrate=N/A speed=14.6x    frame=13165 fps=349 q=-0.0 size=N/A time=00:09:09.09 bitrate=N/A speed=14.6x    frame=13345 fps=350 q=-0.0 size=N/A time=00:09:16.59 bitrate=N/A speed=14.6x    frame=13526 fps=350 q=-0.0 size=N/A time=00:09:24.14 bitrate=N/A speed=14.6x    frame=13719 fps=350 q=-0.0 size=N/A time=00:09:32.19 bitrate=N/A speed=14.6x    frame=13904 fps=350 q=-0.0 size=N/A time=00:09:39.91 bitrate=N/A speed=14.6x    frame=14086 fps=350 q=-0.0 size=N/A time=00:09:47.50 bitrate=N/A speed=14.6x    frame=14254 fps=350 q=-0.0 size=N/A time=00:09:54.51 bitrate=N/A speed=14.6x    frame=14446 fps=350 q=-0.0 size=N/A time=00:10:02.51 bitrate=N/A speed=14.6x    frame=14633 fps=350 q=-0.0 size=N/A time=00:10:10.31 bitrate=N/A speed=14.6x    frame=14824 fps=350 q=-0.0 size=N/A time=00:10:18.28 bitrate=N/A speed=14.6x    frame=15007 fps=350 q=-0.0 size=N/A time=00:10:25.91 bitrate=N/A speed=14.6x    frame=15165 fps=350 q=-0.0 size=N/A time=00:10:32.50 bitrate=N/A speed=14.6x    frame=15347 fps=350 q=-0.0 size=N/A time=00:10:40.09 bitrate=N/A speed=14.6x    frame=15535 fps=350 q=-0.0 size=N/A time=00:10:47.93 bitrate=N/A speed=14.6x    frame=15719 fps=350 q=-0.0 size=N/A time=00:10:55.61 bitrate=N/A speed=14.6x    frame=15909 fps=350 q=-0.0 size=N/A time=00:11:03.53 bitrate=N/A speed=14.6x    frame=16098 fps=351 q=-0.0 size=N/A time=00:11:11.42 bitrate=N/A speed=14.6x    frame=16289 fps=351 q=-0.0 size=N/A time=00:11:19.38 bitrate=N/A speed=14.6x    frame=16474 fps=351 q=-0.0 size=N/A time=00:11:27.10 bitrate=N/A speed=14.6x    frame=16666 fps=351 q=-0.0 size=N/A time=00:11:35.11 bitrate=N/A speed=14.6x    frame=16852 fps=351 q=-0.0 size=N/A time=00:11:42.86 bitrate=N/A speed=14.6x    frame=17041 fps=351 q=-0.0 size=N/A time=00:11:50.75 bitrate=N/A speed=14.7x    frame=17228 fps=352 q=-0.0 size=N/A time=00:11:58.55 bitrate=N/A speed=14.7x    frame=17413 fps=352 q=-0.0 size=N/A time=00:12:06.26 bitrate=N/A speed=14.7x    frame=17602 fps=352 q=-0.0 size=N/A time=00:12:14.15 bitrate=N/A speed=14.7x    frame=17786 fps=352 q=-0.0 size=N/A time=00:12:21.82 bitrate=N/A speed=14.7x    frame=17978 fps=352 q=-0.0 size=N/A time=00:12:29.83 bitrate=N/A speed=14.7x    frame=18166 fps=352 q=-0.0 size=N/A time=00:12:37.67 bitrate=N/A speed=14.7x    frame=18346 fps=352 q=-0.0 size=N/A time=00:12:45.22 bitrate=N/A speed=14.7x    frame=18524 fps=352 q=-0.0 size=N/A time=00:12:52.60 bitrate=N/A speed=14.7x    frame=18715 fps=352 q=-0.0 size=N/A time=00:13:00.57 bitrate=N/A speed=14.7x    frame=18909 fps=352 q=-0.0 size=N/A time=00:13:08.66 bitrate=N/A speed=14.7x    frame=19093 fps=352 q=-0.0 size=N/A time=00:13:16.33 bitrate=N/A speed=14.7x    frame=19286 fps=353 q=-0.0 size=N/A time=00:13:24.42 bitrate=N/A speed=14.7x    frame=19478 fps=353 q=-0.0 size=N/A time=00:13:32.39 bitrate=N/A speed=14.7x    frame=19672 fps=353 q=-0.0 size=N/A time=00:13:40.48 bitrate=N/A speed=14.7x    frame=19861 fps=353 q=-0.0 size=N/A time=00:13:48.36 bitrate=N/A speed=14.7x    frame=20052 fps=353 q=-0.0 size=N/A time=00:13:56.33 bitrate=N/A speed=14.7x    frame=20243 fps=354 q=-0.0 size=N/A time=00:14:04.30 bitrate=N/A speed=14.7x    frame=20430 fps=354 q=-0.0 size=N/A time=00:14:12.10 bitrate=N/A speed=14.7x    frame=20610 fps=354 q=-0.0 size=N/A time=00:14:19.60 bitrate=N/A speed=14.7x    frame=20798 fps=354 q=-0.0 size=N/A time=00:14:27.44 bitrate=N/A speed=14.7x    frame=20987 fps=354 q=-0.0 size=N/A time=00:14:35.33 bitrate=N/A speed=14.8x    frame=21185 fps=354 q=-0.0 size=N/A time=00:14:43.59 bitrate=N/A speed=14.8x    frame=21373 fps=354 q=-0.0 size=N/A time=00:14:51.43 bitrate=N/A speed=14.8x    frame=21563 fps=354 q=-0.0 size=N/A time=00:14:59.35 bitrate=N/A speed=14.8x    frame=21756 fps=354 q=-0.0 size=N/A time=00:15:07.40 bitrate=N/A speed=14.8x    frame=21951 fps=355 q=-0.0 size=N/A time=00:15:15.53 bitrate=N/A speed=14.8x    frame=22128 fps=354 q=-0.0 size=N/A time=00:15:22.92 bitrate=N/A speed=14.8x    frame=22324 fps=355 q=-0.0 size=N/A time=00:15:31.09 bitrate=N/A speed=14.8x    frame=22511 fps=355 q=-0.0 size=N/A time=00:15:38.89 bitrate=N/A speed=14.8x    frame=22700 fps=355 q=-0.0 size=N/A time=00:15:46.77 bitrate=N/A speed=14.8x    frame=22881 fps=355 q=-0.0 size=N/A time=00:15:54.32 bitrate=N/A speed=14.8x    frame=23077 fps=355 q=-0.0 size=N/A time=00:16:02.50 bitrate=N/A speed=14.8x    frame=23265 fps=355 q=-0.0 size=N/A time=00:16:10.34 bitrate=N/A speed=14.8x    frame=23456 fps=355 q=-0.0 size=N/A time=00:16:18.31 bitrate=N/A speed=14.8x    frame=23647 fps=355 q=-0.0 size=N/A time=00:16:26.27 bitrate=N/A speed=14.8x    frame=23835 fps=355 q=-0.0 size=N/A time=00:16:34.11 bitrate=N/A speed=14.8x    frame=24030 fps=356 q=-0.0 size=N/A time=00:16:42.25 bitrate=N/A speed=14.8x    frame=24211 fps=356 q=-0.0 size=N/A time=00:16:49.80 bitrate=N/A speed=14.8x    frame=24392 fps=356 q=-0.0 size=N/A time=00:16:57.34 bitrate=N/A speed=14.8x    frame=24581 fps=356 q=-0.0 size=N/A time=00:17:05.23 bitrate=N/A speed=14.8x    frame=24776 fps=356 q=-0.0 size=N/A time=00:17:13.36 bitrate=N/A speed=14.8x    frame=24963 fps=356 q=-0.0 size=N/A time=00:17:21.16 bitrate=N/A speed=14.8x    frame=25152 fps=356 q=-0.0 size=N/A time=00:17:29.04 bitrate=N/A speed=14.8x    frame=25344 fps=356 q=-0.0 size=N/A time=00:17:37.05 bitrate=N/A speed=14.8x    frame=25530 fps=356 q=-0.0 size=N/A time=00:17:44.81 bitrate=N/A speed=14.8x    frame=25715 fps=356 q=-0.0 size=N/A time=00:17:52.52 bitrate=N/A speed=14.9x    frame=25906 fps=356 q=-0.0 size=N/A time=00:18:00.49 bitrate=N/A speed=14.9x    frame=26090 fps=356 q=-0.0 size=N/A time=00:18:08.17 bitrate=N/A speed=14.9x    frame=26284 fps=356 q=-0.0 size=N/A time=00:18:16.26 bitrate=N/A speed=14.9x    frame=26480 fps=356 q=-0.0 size=N/A time=00:18:24.43 bitrate=N/A speed=14.9x    frame=26670 fps=357 q=-0.0 size=N/A time=00:18:32.36 bitrate=N/A speed=14.9x    frame=26860 fps=357 q=-0.0 size=N/A time=00:18:40.28 bitrate=N/A speed=14.9x    frame=27029 fps=356 q=-0.0 size=N/A time=00:18:47.33 bitrate=N/A speed=14.9x    frame=27211 fps=356 q=-0.0 size=N/A time=00:18:54.92 bitrate=N/A speed=14.9x    frame=27391 fps=356 q=-0.0 size=N/A time=00:19:02.43 bitrate=N/A speed=14.9x    frame=27575 fps=356 q=-0.0 size=N/A time=00:19:10.10 bitrate=N/A speed=14.9x    frame=27754 fps=356 q=-0.0 size=N/A time=00:19:17.57 bitrate=N/A speed=14.9x    frame=27946 fps=356 q=-0.0 size=N/A time=00:19:25.58 bitrate=N/A speed=14.9x    frame=28135 fps=356 q=-0.0 size=N/A time=00:19:33.46 bitrate=N/A speed=14.9x    frame=28322 fps=357 q=-0.0 size=N/A time=00:19:41.26 bitrate=N/A speed=14.9x    frame=28513 fps=357 q=-0.0 size=N/A time=00:19:49.22 bitrate=N/A speed=14.9x    frame=28705 fps=357 q=-0.0 size=N/A time=00:19:57.23 bitrate=N/A speed=14.9x    frame=28875 fps=357 q=-0.0 size=N/A time=00:20:04.32 bitrate=N/A speed=14.9x    frame=29037 fps=356 q=-0.0 size=N/A time=00:20:11.08 bitrate=N/A speed=14.9x    frame=29219 fps=356 q=-0.0 size=N/A time=00:20:18.67 bitrate=N/A speed=14.9x    frame=29399 fps=356 q=-0.0 size=N/A time=00:20:26.18 bitrate=N/A speed=14.9x    frame=29569 fps=356 q=-0.0 size=N/A time=00:20:33.27 bitrate=N/A speed=14.9x    frame=29745 fps=356 q=-0.0 size=N/A time=00:20:40.61 bitrate=N/A speed=14.8x    frame=29928 fps=356 q=-0.0 size=N/A time=00:20:48.24 bitrate=N/A speed=14.8x    frame=30083 fps=356 q=-0.0 size=N/A time=00:20:54.71 bitrate=N/A speed=14.8x    frame=30274 fps=356 q=-0.0 size=N/A time=00:21:02.67 bitrate=N/A speed=14.8x    frame=30460 fps=356 q=-0.0 size=N/A time=00:21:10.43 bitrate=N/A speed=14.8x    frame=30650 fps=356 q=-0.0 size=N/A time=00:21:18.36 bitrate=N/A speed=14.8x    frame=30838 fps=356 q=-0.0 size=N/A time=00:21:26.20 bitrate=N/A speed=14.8x    frame=31024 fps=356 q=-0.0 size=N/A time=00:21:33.95 bitrate=N/A speed=14.8x    frame=31211 fps=356 q=-0.0 size=N/A time=00:21:41.75 bitrate=N/A speed=14.8x    frame=31397 fps=356 q=-0.0 size=N/A time=00:21:49.51 bitrate=N/A speed=14.8x    frame=31579 fps=356 q=-0.0 size=N/A time=00:21:57.10 bitrate=N/A speed=14.8x    frame=31761 fps=356 q=-0.0 size=N/A time=00:22:04.69 bitrate=N/A speed=14.8x    frame=31945 fps=356 q=-0.0 size=N/A time=00:22:12.37 bitrate=N/A speed=14.8x    frame=32124 fps=356 q=-0.0 size=N/A time=00:22:19.83 bitrate=N/A speed=14.8x    frame=32306 fps=356 q=-0.0 size=N/A time=00:22:27.42 bitrate=N/A speed=14.8x    frame=32495 fps=356 q=-0.0 size=N/A time=00:22:35.31 bitrate=N/A speed=14.8x    frame=32659 fps=356 q=-0.0 size=N/A time=00:22:42.15 bitrate=N/A speed=14.8x    frame=32825 fps=356 q=-0.0 size=N/A time=00:22:49.07 bitrate=N/A speed=14.8x    frame=32993 fps=355 q=-0.0 size=N/A time=00:22:56.08 bitrate=N/A speed=14.8x    frame=33167 fps=355 q=-0.0 size=N/A time=00:23:03.34 bitrate=N/A speed=14.8x    frame=33343 fps=355 q=-0.0 size=N/A time=00:23:10.68 bitrate=N/A speed=14.8x    frame=33509 fps=355 q=-0.0 size=N/A time=00:23:17.60 bitrate=N/A speed=14.8x    frame=33661 fps=355 q=-0.0 size=N/A time=00:23:23.94 bitrate=N/A speed=14.8x    frame=33799 fps=354 q=-0.0 size=N/A time=00:23:29.69 bitrate=N/A speed=14.8x    frame=33933 fps=354 q=-0.0 size=N/A time=00:23:35.28 bitrate=N/A speed=14.8x    frame=34102 fps=354 q=-0.0 size=N/A time=00:23:42.33 bitrate=N/A speed=14.7x    frame=34258 fps=353 q=-0.0 size=N/A time=00:23:48.84 bitrate=N/A speed=14.7x    frame=34388 fps=353 q=-0.0 size=N/A time=00:23:54.26 bitrate=N/A speed=14.7x    frame=34543 fps=353 q=-0.0 size=N/A time=00:24:00.73 bitrate=N/A speed=14.7x    [Parsed_ssim_16 @ 000001624b7507c0] SSIM Y:0.993894 (22.142441) U:0.993979 (22.203618) V:0.993582 (21.926047) All:0.993856 (22.115669)
[out#0/null @ 000001623ea1dec0] video:14903KiB audio:271276KiB subtitle:0KiB other streams:0KiB global headers:0KiB muxing overhead: unknown
frame=34683 fps=353 q=-0.0 Lsize=N/A time=00:24:06.57 bitrate=N/A speed=14.7x    
